<svg width="123" height="24" viewBox="0 0 123 24" fill="none" xmlns="http://www.w3.org/2000/svg">
<path d="M23.935 1.31V23H20.38V8.99C20.38 8.43 20.41 7.825 20.47 7.175L13.915 19.49C13.605 20.08 13.13 20.375 12.49 20.375H11.92C11.28 20.375 10.805 20.08 10.495 19.49L3.865 7.13C3.895 7.46 3.92 7.785 3.94 8.105C3.96 8.425 3.97 8.72 3.97 8.99V23H0.415V1.31H3.46C3.64 1.31 3.795 1.315 3.925 1.325C4.055 1.335 4.17 1.36 4.27 1.4C4.38 1.44 4.475 1.505 4.555 1.595C4.645 1.685 4.73 1.805 4.81 1.955L11.305 14C11.475 14.32 11.63 14.65 11.77 14.99C11.92 15.33 12.065 15.68 12.205 16.04C12.345 15.67 12.49 15.315 12.64 14.975C12.79 14.625 12.95 14.29 13.12 13.97L19.525 1.955C19.605 1.805 19.69 1.685 19.78 1.595C19.87 1.505 19.965 1.44 20.065 1.4C20.175 1.36 20.295 1.335 20.425 1.325C20.555 1.315 20.71 1.31 20.89 1.31H23.935Z" fill="#F14F1B"/>
<path d="M35.0294 7.61V23H31.3094V7.61H35.0294ZM35.5394 3.125C35.5394 3.445 35.4744 3.745 35.3444 4.025C35.2144 4.305 35.0394 4.55 34.8194 4.76C34.6094 4.97 34.3594 5.14 34.0694 5.27C33.7794 5.39 33.4694 5.45 33.1394 5.45C32.8194 5.45 32.5144 5.39 32.2244 5.27C31.9444 5.14 31.6994 4.97 31.4894 4.76C31.2794 4.55 31.1094 4.305 30.9794 4.025C30.8594 3.745 30.7994 3.445 30.7994 3.125C30.7994 2.795 30.8594 2.485 30.9794 2.195C31.1094 1.905 31.2794 1.655 31.4894 1.445C31.6994 1.235 31.9444 1.07 32.2244 0.95C32.5144 0.819999 32.8194 0.754999 33.1394 0.754999C33.4694 0.754999 33.7794 0.819999 34.0694 0.95C34.3594 1.07 34.6094 1.235 34.8194 1.445C35.0394 1.655 35.2144 1.905 35.3444 2.195C35.4744 2.485 35.5394 2.795 35.5394 3.125ZM45.2716 9.5C45.5816 9.19 45.9066 8.905 46.2466 8.645C46.5966 8.375 46.9616 8.15 47.3416 7.97C47.7316 7.78 48.1466 7.635 48.5866 7.535C49.0266 7.425 49.5066 7.37 50.0266 7.37C50.8666 7.37 51.6116 7.515 52.2616 7.805C52.9116 8.085 53.4516 8.485 53.8816 9.005C54.3216 9.515 54.6516 10.13 54.8716 10.85C55.1016 11.56 55.2166 12.345 55.2166 13.205V23H51.5116V13.205C51.5116 12.265 51.2966 11.54 50.8666 11.03C50.4366 10.51 49.7816 10.25 48.9016 10.25C48.2616 10.25 47.6616 10.395 47.1016 10.685C46.5416 10.975 46.0116 11.37 45.5116 11.87V23H41.8066V7.61H44.0716C44.5516 7.61 44.8666 7.835 45.0166 8.285L45.2716 9.5ZM65.5802 7.61V23H61.8602V7.61H65.5802ZM66.0902 3.125C66.0902 3.445 66.0252 3.745 65.8952 4.025C65.7652 4.305 65.5902 4.55 65.3702 4.76C65.1602 4.97 64.9102 5.14 64.6202 5.27C64.3302 5.39 64.0202 5.45 63.6902 5.45C63.3702 5.45 63.0652 5.39 62.7752 5.27C62.4952 5.14 62.2502 4.97 62.0402 4.76C61.8302 4.55 61.6602 4.305 61.5302 4.025C61.4102 3.745 61.3502 3.445 61.3502 3.125C61.3502 2.795 61.4102 2.485 61.5302 2.195C61.6602 1.905 61.8302 1.655 62.0402 1.445C62.2502 1.235 62.4952 1.07 62.7752 0.95C63.0652 0.819999 63.3702 0.754999 63.6902 0.754999C64.0202 0.754999 64.3302 0.819999 64.6202 0.95C64.9102 1.07 65.1602 1.235 65.3702 1.445C65.5902 1.655 65.7652 1.905 65.8952 2.195C66.0252 2.485 66.0902 2.795 66.0902 3.125ZM72.3573 23V7.61H74.6223C75.1023 7.61 75.4173 7.835 75.5673 8.285L75.8073 9.425C76.0773 9.125 76.3573 8.85 76.6473 8.6C76.9473 8.35 77.2623 8.135 77.5923 7.955C77.9323 7.775 78.2923 7.635 78.6723 7.535C79.0623 7.425 79.4873 7.37 79.9473 7.37C80.9173 7.37 81.7123 7.635 82.3323 8.165C82.9623 8.685 83.4323 9.38 83.7423 10.25C83.9823 9.74 84.2823 9.305 84.6423 8.945C85.0023 8.575 85.3973 8.275 85.8273 8.045C86.2573 7.815 86.7123 7.645 87.1923 7.535C87.6823 7.425 88.1723 7.37 88.6623 7.37C89.5123 7.37 90.2673 7.5 90.9273 7.76C91.5873 8.02 92.1423 8.4 92.5923 8.9C93.0423 9.4 93.3823 10.01 93.6123 10.73C93.8523 11.45 93.9723 12.275 93.9723 13.205V23H90.2673V13.205C90.2673 12.225 90.0523 11.49 89.6223 11C89.1923 10.5 88.5623 10.25 87.7323 10.25C87.3523 10.25 86.9973 10.315 86.6673 10.445C86.3473 10.575 86.0623 10.765 85.8123 11.015C85.5723 11.255 85.3823 11.56 85.2423 11.93C85.1023 12.3 85.0323 12.725 85.0323 13.205V23H81.3123V13.205C81.3123 12.175 81.1023 11.425 80.6823 10.955C80.2723 10.485 79.6673 10.25 78.8673 10.25C78.3273 10.25 77.8223 10.385 77.3523 10.655C76.8923 10.915 76.4623 11.275 76.0623 11.735V23H72.3573ZM108.624 16.43C107.554 16.48 106.654 16.575 105.924 16.715C105.194 16.845 104.609 17.015 104.169 17.225C103.729 17.435 103.414 17.68 103.224 17.96C103.034 18.24 102.939 18.545 102.939 18.875C102.939 19.525 103.129 19.99 103.509 20.27C103.899 20.55 104.404 20.69 105.024 20.69C105.784 20.69 106.439 20.555 106.989 20.285C107.549 20.005 108.094 19.585 108.624 19.025V16.43ZM100.134 9.755C101.904 8.135 104.034 7.325 106.524 7.325C107.424 7.325 108.229 7.475 108.939 7.775C109.649 8.065 110.249 8.475 110.739 9.005C111.229 9.525 111.599 10.15 111.849 10.88C112.109 11.61 112.239 12.41 112.239 13.28V23H110.559C110.209 23 109.939 22.95 109.749 22.85C109.559 22.74 109.409 22.525 109.299 22.205L108.969 21.095C108.579 21.445 108.199 21.755 107.829 22.025C107.459 22.285 107.074 22.505 106.674 22.685C106.274 22.865 105.844 23 105.384 23.09C104.934 23.19 104.434 23.24 103.884 23.24C103.234 23.24 102.634 23.155 102.084 22.985C101.534 22.805 101.059 22.54 100.659 22.19C100.259 21.84 99.9491 21.405 99.7291 20.885C99.5091 20.365 99.3991 19.76 99.3991 19.07C99.3991 18.68 99.4641 18.295 99.5941 17.915C99.7241 17.525 99.9341 17.155 100.224 16.805C100.524 16.455 100.909 16.125 101.379 15.815C101.849 15.505 102.424 15.235 103.104 15.005C103.794 14.775 104.594 14.59 105.504 14.45C106.414 14.3 107.454 14.21 108.624 14.18V13.28C108.624 12.25 108.404 11.49 107.964 11C107.524 10.5 106.889 10.25 106.059 10.25C105.459 10.25 104.959 10.32 104.559 10.46C104.169 10.6 103.824 10.76 103.524 10.94C103.224 11.11 102.949 11.265 102.699 11.405C102.459 11.545 102.189 11.615 101.889 11.615C101.629 11.615 101.409 11.55 101.229 11.42C101.049 11.28 100.904 11.12 100.794 10.94L100.134 9.755ZM122.478 0.709999V23H118.773V0.709999H122.478Z" fill="black"/>
</svg>
