<svg width="288.901" height="106" viewBox="0 0 288.901 106" xmlns="http://www.w3.org/2000/svg"><g id="svgGroup" stroke-linecap="round" fill-rule="evenodd" font-size="9pt" stroke="#000" stroke-width="0.25mm" fill="black" style="stroke:#000;stroke-width:0.25mm;fill:black"><path d="M 86.1 76.6 L 84.8 78.2 L 62.9 78.2 L 61.7 74.8 L 64 74.2 A 16.328 16.328 0 0 0 65.646 73.594 Q 67.552 72.764 68.45 71.65 Q 69.352 70.532 69.603 68.606 A 12.45 12.45 0 0 0 69.7 67 L 69.5 63.3 L 66.6 21.6 L 45.7 71 L 40.3 71 L 19.4 21.6 L 17.2 52.4 A 326.46 326.46 0 0 0 16.939 55.614 Q 16.6 60.095 16.6 62.2 Q 16.6 66.3 17.45 69.15 A 19.263 19.263 0 0 0 19.066 72.957 A 23.629 23.629 0 0 0 20.2 74.8 L 21.4 76.6 L 19.9 78.2 L 1.1 78.2 L 0 74.8 L 2.3 74.2 Q 5.784 73.128 7.312 71.578 A 5.055 5.055 0 0 0 7.65 71.2 A 5.615 5.615 0 0 0 8.444 69.812 Q 9.027 68.399 9.281 66.215 A 26.76 26.76 0 0 0 9.4 64.9 L 12.1 25.3 A 194.312 194.312 0 0 1 12.156 24.588 Q 12.221 23.788 12.312 22.723 A 700.576 700.576 0 0 1 12.4 21.7 A 58.814 58.814 0 0 0 12.537 19.783 Q 12.584 18.905 12.596 18.116 A 34.335 34.335 0 0 0 12.6 17.6 A 14.627 14.627 0 0 0 12.507 15.883 Q 12.258 13.79 11.35 12.7 A 4.835 4.835 0 0 0 10.218 11.732 Q 9.068 11.001 7.221 10.507 A 18.804 18.804 0 0 0 6.8 10.4 L 4.5 9.8 L 5.6 6.4 L 23.8 6.4 L 44.4 56.7 L 65.6 6.4 L 80 6.4 L 81.5 8 L 80.3 9.8 A 22.279 22.279 0 0 0 78.414 13.143 A 18.393 18.393 0 0 0 77.55 15.45 Q 76.854 17.785 76.728 20.96 A 36.391 36.391 0 0 0 76.7 22.4 A 22.98 22.98 0 0 0 76.718 23.174 Q 76.78 24.928 77.066 29.36 A 946.364 946.364 0 0 0 77.2 31.4 L 79.2 58.8 A 53.309 53.309 0 0 0 79.723 63.162 Q 80.072 65.283 80.581 67.092 A 26.112 26.112 0 0 0 81.25 69.15 A 20.69 20.69 0 0 0 86.049 76.549 A 23.64 23.64 0 0 0 86.1 76.6 Z M 280 82 L 280 67.2 A 16.632 16.632 0 0 1 273.385 73.989 A 20.046 20.046 0 0 1 273.1 74.15 Q 268.5 76.7 263 76.7 A 18.623 18.623 0 0 1 258.344 76.151 A 12.933 12.933 0 0 1 251.9 72.35 A 14.27 14.27 0 0 1 248.736 66.58 Q 247.9 63.711 247.9 60.1 L 247.9 37.9 A 5.043 5.043 0 0 0 247.868 37.312 Q 247.797 36.706 247.564 36.349 A 1.217 1.217 0 0 0 247.45 36.2 A 1.296 1.296 0 0 0 246.966 35.872 Q 246.545 35.7 245.9 35.7 L 241.5 35.7 L 240.6 33.1 Q 243.2 30.5 246.95 28.8 Q 250.057 27.392 252.718 27.15 A 11.969 11.969 0 0 1 253.8 27.1 Q 255.2 27.1 256.1 28 A 3.037 3.037 0 0 1 256.986 29.958 A 4.082 4.082 0 0 1 257 30.3 L 257 57.8 A 24 24 0 0 0 257.223 61.187 Q 257.469 62.91 257.988 64.305 A 9.768 9.768 0 0 0 259.4 66.9 Q 261.8 70 266.4 70 A 14.195 14.195 0 0 0 271.184 69.23 A 11.954 11.954 0 0 0 276.85 64.95 Q 279.905 60.836 280.471 54.166 A 37.461 37.461 0 0 0 280.6 51 Q 280.6 44.371 280.143 40.487 A 30.603 30.603 0 0 0 279.9 38.8 Q 279.2 34.8 276.7 31.5 L 275.5 29.9 L 276.7 28.4 L 288.9 27.1 L 288.9 80.4 A 40.784 40.784 0 0 1 288.275 87.782 Q 286.971 94.856 282.95 99.35 A 19.569 19.569 0 0 1 270.852 105.704 A 28.069 28.069 0 0 1 266.7 106 Q 261.2 106 257.3 103.95 Q 253.4 101.9 251.5 98.65 Q 249.6 95.4 249.6 91.7 A 14.651 14.651 0 0 1 249.6 91.622 A 11.908 11.908 0 0 1 253 83.15 A 11.235 11.235 0 0 1 259.098 79.897 A 16.46 16.46 0 0 1 262.3 79.6 Q 263.3 79.6 263.75 79.95 A 1.621 1.621 0 0 1 263.968 80.151 Q 264.2 80.413 264.2 80.7 Q 264.2 81.077 262.958 82.43 A 28.609 28.609 0 0 1 262.8 82.6 A 14.16 14.16 0 0 0 261.113 84.827 A 17.48 17.48 0 0 0 260.35 86.2 A 9.167 9.167 0 0 0 259.614 88.329 Q 259.3 89.75 259.3 91.5 A 11.199 11.199 0 0 0 259.742 94.715 A 8.989 8.989 0 0 0 261.65 98.15 A 7.73 7.73 0 0 0 266.674 100.722 A 10.9 10.9 0 0 0 268 100.8 A 11.783 11.783 0 0 0 271.873 100.198 Q 275.197 99.047 277.1 95.7 A 19.67 19.67 0 0 0 278.978 90.979 Q 279.585 88.68 279.831 85.945 A 43.974 43.974 0 0 0 280 82 Z M 158.2 73.3 L 158.2 10.8 A 5.043 5.043 0 0 0 158.168 10.212 Q 158.097 9.606 157.864 9.249 A 1.217 1.217 0 0 0 157.75 9.1 A 1.296 1.296 0 0 0 157.266 8.772 Q 156.845 8.6 156.2 8.6 L 151.8 8.6 L 150.9 6 Q 153.8 3.4 157.5 1.7 A 22.61 22.61 0 0 1 160.056 0.698 Q 161.405 0.267 162.629 0.102 A 11.02 11.02 0 0 1 164.1 0 Q 165.5 0 166.4 0.9 A 3.037 3.037 0 0 1 167.286 2.858 A 4.082 4.082 0 0 1 167.3 3.2 L 167.3 70.8 A 18.733 18.733 0 0 0 170.016 72.412 A 15.235 15.235 0 0 0 172.15 73.25 Q 174.6 74 177.8 74 Q 184.5 74 188.4 68.45 Q 192.3 62.9 192.3 53.4 Q 192.3 47.4 190.55 42.7 A 20.996 20.996 0 0 0 188.833 39.108 Q 187.492 36.903 185.7 35.4 Q 182.6 32.8 178.5 32.8 A 18.458 18.458 0 0 0 176.762 32.877 Q 175.216 33.024 174.1 33.45 A 48.171 48.171 0 0 1 173.512 33.671 Q 172.344 34.1 172.1 34.1 A 1.021 1.021 0 0 1 171.448 33.86 Q 171.298 33.739 171.16 33.558 A 2.46 2.46 0 0 1 171.05 33.4 Q 170.6 32.7 170.6 31.9 A 2.528 2.528 0 0 1 170.706 31.146 A 1.912 1.912 0 0 1 171.5 30.1 Q 176.1 27.2 181.6 27.2 A 21.138 21.138 0 0 1 188.655 28.351 A 19.231 19.231 0 0 1 192.65 30.3 A 20.698 20.698 0 0 1 199.854 38.222 A 24.679 24.679 0 0 1 200.2 38.9 A 26.341 26.341 0 0 1 202.662 47.376 A 33.138 33.138 0 0 1 202.9 51.4 A 32.412 32.412 0 0 1 201.637 60.575 A 28.51 28.51 0 0 1 199.5 65.85 Q 196.1 72.3 190.2 75.95 Q 184.3 79.6 176.9 79.6 A 34.878 34.878 0 0 1 169.303 78.797 A 30.597 30.597 0 0 1 166.1 77.9 A 25.663 25.663 0 0 1 162.384 76.321 Q 159.922 75.022 158.2 73.3 Z M 234.2 70.7 L 236.1 73.3 A 24.158 24.158 0 0 1 232.871 76.321 A 20.174 20.174 0 0 1 230.5 77.9 A 15.324 15.324 0 0 1 228.306 78.936 Q 227.04 79.408 225.853 79.545 A 8.338 8.338 0 0 1 224.9 79.6 A 10.558 10.558 0 0 1 222.695 79.386 Q 220.273 78.868 219 77.1 A 7.628 7.628 0 0 1 217.994 75.071 Q 217.319 73.07 217.218 70.081 A 32.061 32.061 0 0 1 217.2 69 L 217.2 10.8 A 5.043 5.043 0 0 0 217.168 10.212 Q 217.097 9.606 216.864 9.249 A 1.217 1.217 0 0 0 216.75 9.1 A 1.296 1.296 0 0 0 216.266 8.772 Q 215.845 8.6 215.2 8.6 L 210.8 8.6 L 209.9 6 Q 212.8 3.4 216.5 1.7 A 22.61 22.61 0 0 1 219.056 0.698 Q 220.405 0.267 221.629 0.102 A 11.02 11.02 0 0 1 223.1 0 Q 224.5 0 225.4 0.9 A 3.037 3.037 0 0 1 226.286 2.858 A 4.082 4.082 0 0 1 226.3 3.2 L 226.2 69.4 A 5.609 5.609 0 0 0 226.333 70.683 Q 226.744 72.425 228.419 72.734 A 4.31 4.31 0 0 0 229.2 72.8 A 6.518 6.518 0 0 0 231.973 72.154 Q 232.878 71.733 233.783 71.036 A 12.592 12.592 0 0 0 234.2 70.7 Z M 95.706 46.581 A 36.58 36.58 0 0 0 95.1 53.4 A 36.942 36.942 0 0 0 95.532 59.163 A 27.876 27.876 0 0 0 98.05 67.25 Q 101 73.2 106.55 76.4 A 23.053 23.053 0 0 0 112.664 78.825 A 28.919 28.919 0 0 0 119.5 79.6 A 30.504 30.504 0 0 0 123.966 79.284 A 23.409 23.409 0 0 0 132.4 76.4 Q 137.9 73.2 140.9 67.25 A 27.036 27.036 0 0 0 143.241 60.378 A 35.325 35.325 0 0 0 143.9 53.4 A 36.594 36.594 0 0 0 143.405 47.247 A 26.995 26.995 0 0 0 140.9 39.5 Q 137.9 33.6 132.4 30.4 Q 126.9 27.2 119.5 27.2 Q 112.1 27.2 106.55 30.4 Q 101 33.6 98.05 39.5 A 26.997 26.997 0 0 0 95.706 46.581 Z M 133.4 53.7 A 36.727 36.727 0 0 0 132.44 45.474 A 41.74 41.74 0 0 0 132.1 44.1 A 21.294 21.294 0 0 0 129.976 38.873 A 18.325 18.325 0 0 0 127.75 35.8 A 10.058 10.058 0 0 0 120.405 32.413 A 13.641 13.641 0 0 0 119.8 32.4 Q 115.6 32.4 112.35 35.05 A 15.111 15.111 0 0 0 109.002 38.955 A 20.968 20.968 0 0 0 107.3 42.5 A 27.547 27.547 0 0 0 105.845 48.343 A 36.96 36.96 0 0 0 105.5 53.5 Q 105.5 60.354 107.426 65.178 A 18.895 18.895 0 0 0 109.2 68.6 Q 112.9 74.2 119.2 74.2 Q 123.3 74.2 126.55 71.65 A 14.697 14.697 0 0 0 129.972 67.763 A 20.066 20.066 0 0 0 131.6 64.45 A 25.87 25.87 0 0 0 133.03 58.931 A 35.306 35.306 0 0 0 133.4 53.7 Z" vector-effect="non-scaling-stroke"/></g></svg>